<svg version="1" xmlns="http://www.w3.org/2000/svg" width="1365.333" height="1365.333" viewBox="0 0 1024.000000 1024.000000"><path d="M0 512v512h1024V0H0v512zm521.3-183.5c19.1 3.3 33.9 11 48.1 25 32.4 31.9 48.2 88.7 46.3 166.5-1.7 69.7-16.2 115.5-45.9 145.2-19.7 19.7-38.1 26.9-68.8 26.9-31.3-.1-50.2-7.4-69.8-27.3-26.3-26.6-39.8-64.6-44.3-124.8-2-27.1-.1-72.6 4.1-97.5 6.2-35.9 18.9-65.2 36.8-84.5 20.4-22.1 40.5-30.8 71.8-30.9 7.5-.1 16.8.5 21.7 1.4zM299 509.5V685h-78V427l-25.6 19.2c-14.1 10.6-25.9 19.3-26.3 19.3-.3 0-2.6-3.6-5.2-8-2.5-4.4-10-17.5-16.7-29.1-6.7-11.6-12.4-21.7-12.7-22.5-.3-.9 1.9-3.3 6.2-6.5 7.2-5.4 60.3-44.3 78.6-57.6l10.9-7.8H299v175.5zm430.2-158c3.8 9.3 13.3 32.7 21 52 7.7 19.2 14.4 35.3 14.7 35.7.3.4 10.3-23 22.1-52l21.6-52.7 40.8-.3c32.5-.2 40.7 0 40.3 1-.5 1.1-18.8 39.3-63.7 133.1-7.1 14.7-13.4 28.2-14 30-1.1 3-.6 4.4 8.5 23.7 5.4 11.3 11.5 24.3 13.7 29 7.6 16 13.5 28.5 37.1 78.5 13.1 27.5 23.7 51.3 23.7 52.8v2.7h-83.5l-6.1-14.8c-31.2-75-41.9-100-42.5-99.4-.3.4-3.2 7-6.4 14.7-3.2 7.7-7.5 18-9.5 23-17.7 42.6-29.9 72.4-30.5 74.2l-.6 2.3h-83l.6-2.1c.4-1.1 3-6.9 5.7-12.7 48.9-103.9 78.8-167.9 78.8-169 0-.9-9.2-20.6-48.2-102.7-28.5-59.9-29.8-62.7-29.8-63.7 0-.4 18.5-.7 41.2-.6l41.1.3 6.9 17z"/><path d="M493.2 398.3c-12.4 4.6-22 27.6-26.2 63.2-1.8 14.4-2.4 64-1.1 82.7 2.7 39.6 11.2 66.4 23.8 74.7 3.9 2.6 5.6 3.1 10.6 3.1 3.4 0 7.4-.7 9.3-1.6 7.9-3.8 14.6-15.2 19.8-34 9.1-32.3 9.9-108.5 1.5-147.1-3.7-17-9.9-31.2-16.1-37-5.3-4.8-14.4-6.5-21.6-4z"/></svg>